<?xml version="1.0" encoding="utf-8"?>
<!-- Generator: Adobe Illustrator 25.0.0, SVG Export Plug-In . SVG Version: 6.00 Build 0)  -->
<svg version="1.1" id="Capa_1" xmlns="http://www.w3.org/2000/svg" xmlns:xlink="http://www.w3.org/1999/xlink" x="0px" y="0px"
	 viewBox="50 235 745 135" style="enable-background:new 0 0 841.89 595.28;" xml:space="preserve">
<style type="text/css">
	.st0{fill:#FFFFFF;}
</style>
<g>
	<path class="st0" d="M133.84,295.14l-23.55,34.42c-2.05,0.7-4.15,1.28-6.29,1.73c-2.15,0.45-4.31,0.67-6.49,0.67
		c-1.41,0-2.73-0.1-3.94-0.29c-4.61-0.45-8.94-1.66-12.98-3.65c-4.03-1.99-7.57-4.57-10.62-7.74c-3.04-3.17-5.43-6.84-7.16-11.01
		c-1.73-4.17-2.59-8.65-2.59-13.46c0-5,0.99-9.69,2.98-14.08c1.99-4.39,4.66-8.2,8.03-11.44c3.36-3.24,7.27-5.78,11.72-7.64
		c4.46-1.86,9.18-2.79,14.18-2.79c3.27,0,6.55,0.46,9.85,1.39c3.3,0.93,6.43,2.26,9.37,3.99c2.95,1.73,5.61,3.82,7.98,6.25
		c2.37,2.44,4.23,5.19,5.58,8.27c0.32,0.52,0.57,1.12,0.77,1.83h-2.11h-13.17c-2.05-3.14-4.75-5.56-8.08-7.26
		c-3.33-1.69-6.82-2.55-10.48-2.55c-3.33,0-6.46,0.64-9.37,1.92c-2.92,1.28-5.45,3.01-7.6,5.19c-2.15,2.18-3.83,4.75-5.04,7.69
		C73.6,289.53,73,292.67,73,296c0,1.6,0.19,3.19,0.57,4.75c0.39,1.57,0.87,3.09,1.45,4.57c1.98,4.68,4.96,8.28,8.94,10.81
		c3.97,2.54,8.49,3.8,13.55,3.8c0.83,0,1.61-0.03,2.35-0.1c0.74-0.06,1.49-0.16,2.26-0.29l8.65-12.31H89.04v-12.11h30H133.84z"/>
	<path class="st0" d="M175.18,331.95c-4.94,0-9.6-0.92-13.99-2.78c-4.39-1.86-8.24-4.41-11.54-7.64c-3.3-3.24-5.91-7.03-7.83-11.39
		c-1.92-4.36-2.88-9.03-2.88-14.03c0-5.06,0.94-9.79,2.83-14.18c1.89-4.39,4.49-8.21,7.79-11.49c3.3-3.26,7.14-5.84,11.53-7.74
		c4.39-1.89,9.09-2.83,14.09-2.83c5,0,9.7,0.94,14.12,2.83c4.42,1.89,8.27,4.47,11.54,7.74c3.27,3.27,5.87,7.1,7.79,11.49
		c1.92,4.39,2.88,9.12,2.88,14.18c0,5-0.95,9.67-2.88,14.03c-1.92,4.36-4.54,8.15-7.84,11.39c-3.3,3.23-7.15,5.78-11.53,7.64
		C184.87,331.03,180.18,331.95,175.18,331.95z M175.18,271.97c-3.27,0-6.33,0.64-9.18,1.92c-2.85,1.29-5.34,3.02-7.45,5.2
		c-2.12,2.18-3.77,4.73-4.95,7.64c-1.19,2.92-1.77,6.01-1.77,9.28c0,3.21,0.6,6.25,1.82,9.13c1.22,2.89,2.87,5.42,4.95,7.6
		c2.09,2.18,4.55,3.9,7.4,5.19c2.85,1.28,5.91,1.92,9.18,1.92c3.26,0,6.32-0.64,9.18-1.92c2.85-1.29,5.31-3.02,7.4-5.19
		c2.08-2.18,3.73-4.71,4.95-7.6c1.21-2.88,1.83-5.92,1.83-9.13c0-3.27-0.6-6.36-1.78-9.28c-1.19-2.91-2.82-5.46-4.9-7.64
		c-2.09-2.18-4.55-3.91-7.41-5.2C181.6,272.61,178.51,271.97,175.18,271.97z"/>
	<path class="st0" d="M261.11,331.95h-16.14l-26.05-37.68h6.73h8.65c1.73,0,3.38-0.22,4.95-0.68c1.57-0.45,2.93-1.12,4.09-2.02
		c1.15-0.9,2.06-2.03,2.73-3.41c0.67-1.38,1.01-3.03,1.01-4.95c0-1.86-0.35-3.47-1.05-4.81c-0.71-1.35-1.63-2.47-2.79-3.37
		c-1.16-0.89-2.5-1.57-4.03-2.02c-1.54-0.45-3.18-0.67-4.9-0.67h-8.65h-10v-12.5l0,0h18.84c3.21,0,6.28,0.3,9.23,0.91
		c2.94,0.61,5.7,1.91,8.27,3.9c2.7,2.24,4.78,4.87,6.25,7.89c1.48,3.01,2.21,6.21,2.21,9.61c0,3.08-0.61,6.19-1.82,9.33
		c-1.22,3.13-2.88,5.76-5,7.88c-1.86,1.8-3.72,3.09-5.58,3.89c-1.86,0.8-4.01,1.46-6.44,1.98L261.11,331.95z"/>
	<path class="st0" d="M306.25,280.86c-2.02-5.03-4.98-9.24-8.89-12.64c-1.99-1.73-4.16-3.14-6.54-4.23
		c-2.37-1.09-4.86-1.94-7.45-2.54c-2.59-0.61-5.22-1.03-7.88-1.26c-2.66-0.22-5.24-0.33-7.74-0.33h-3.07v12.4
		c2.11,0,4.23,0.03,6.34,0.1c2.12,0.06,4.16,0.29,6.15,0.67c1.99,0.39,3.92,1,5.77,1.83c1.86,0.83,3.62,1.98,5.29,3.46
		c2.5,2.24,4.42,4.95,5.77,8.12c1.35,3.17,2.02,6.4,2.02,9.66c0,3.97-0.93,7.78-2.79,11.43c-1.86,3.66-4.58,6.48-8.17,8.46
		c-2.89,1.67-5.72,2.68-8.51,3.03c-2.79,0.35-5.78,0.53-8.99,0.53h-2.88v12.4h3.37c1.92,0,3.94-0.06,6.05-0.19
		c2.12-0.13,4.2-0.37,6.25-0.72c2.05-0.36,4.07-0.83,6.06-1.44c1.98-0.61,3.84-1.4,5.57-2.36c2.76-1.47,5.21-3.35,7.35-5.62
		c2.15-2.27,3.96-4.79,5.43-7.55c1.47-2.76,2.59-5.67,3.36-8.75c0.77-3.08,1.16-6.15,1.16-9.23
		C309.28,290.98,308.27,285.89,306.25,280.86z"/>
	<path class="st0" d="M350.32,331.95c-4.93,0-9.59-0.92-13.99-2.78c-4.39-1.86-8.24-4.41-11.53-7.64c-3.3-3.24-5.92-7.03-7.83-11.39
		c-1.92-4.36-2.88-9.03-2.88-14.03c0-5.06,0.94-9.79,2.84-14.18c1.89-4.39,4.48-8.21,7.78-11.49c3.3-3.26,7.15-5.84,11.54-7.74
		c4.38-1.89,9.08-2.83,14.08-2.83c5,0,9.71,0.94,14.13,2.83c4.42,1.89,8.26,4.47,11.53,7.74c3.27,3.27,5.86,7.1,7.79,11.49
		c1.92,4.39,2.88,9.12,2.88,14.18c0,5-0.96,9.67-2.88,14.03c-1.92,4.36-4.53,8.15-7.83,11.39c-3.3,3.23-7.15,5.78-11.54,7.64
		C360.01,331.03,355.31,331.95,350.32,331.95z M350.32,271.97c-3.26,0-6.33,0.64-9.18,1.92c-2.85,1.29-5.33,3.02-7.45,5.2
		c-2.11,2.18-3.76,4.73-4.95,7.64c-1.19,2.92-1.78,6.01-1.78,9.28c0,3.21,0.61,6.25,1.83,9.13c1.21,2.89,2.87,5.42,4.94,7.6
		c2.09,2.18,4.55,3.9,7.41,5.19c2.85,1.28,5.91,1.92,9.18,1.92s6.33-0.64,9.18-1.92c2.85-1.29,5.31-3.02,7.4-5.19
		c2.08-2.18,3.73-4.71,4.95-7.6c1.21-2.88,1.82-5.92,1.82-9.13c0-3.27-0.59-6.36-1.78-9.28c-1.19-2.91-2.82-5.46-4.9-7.64
		c-2.09-2.18-4.55-3.91-7.4-5.2C356.74,272.61,353.65,271.97,350.32,271.97z"/>
	<path class="st0" d="M514.49,262.55v31.82h19.32v2.59h-19.32v32.39v2.5h-2.88v-72h39.51v2.69H514.49z"/>
	<path class="st0" d="M555.06,259.76h2.98v69.5h30.48v2.69h-33.46V259.76z"/>
	<polygon class="st0" points="598.8,259.86 592.94,259.86 592.94,331.95 595.81,331.95 595.81,262.45 597.06,262.45 646.38,331.95 
		649.94,331.95 	"/>
	<path class="st0" d="M691.27,262.26c-4.61,0-8.94,0.86-12.98,2.55c-4.04,1.69-7.56,4.05-10.57,7.06
		c-3.01,3.01-5.38,6.57-7.11,10.67c-1.73,4.1-2.59,8.55-2.59,13.36c0,4.81,0.86,9.27,2.59,13.37c1.73,4.11,4.11,7.64,7.11,10.62
		c3.02,2.99,6.54,5.32,10.57,7.02c4.03,1.7,8.36,2.54,12.98,2.54h14.52v2.5h-14.52c-5,0-9.69-0.89-14.08-2.69
		c-4.39-1.8-8.22-4.31-11.49-7.54c-3.27-3.23-5.85-7.05-7.74-11.44c-1.89-4.38-2.83-9.18-2.83-14.37c0-5.25,0.94-10.07,2.83-14.46
		c1.9-4.39,4.47-8.18,7.74-11.39c3.27-3.21,7.1-5.7,11.49-7.5c4.39-1.79,9.08-2.69,14.08-2.69h14.52v2.4H691.27z"/>
	<path class="st0" d="M745.77,331.95c-5,0-9.69-0.89-14.08-2.69c-4.39-1.8-8.21-4.3-11.48-7.5c-3.27-3.21-5.85-7.02-7.74-11.44
		c-1.89-4.42-2.83-9.22-2.83-14.42c0-5.25,0.94-10.07,2.83-14.46c1.9-4.39,4.47-8.17,7.74-11.34c3.27-3.17,7.09-5.65,11.48-7.45
		c4.39-1.79,9.08-2.69,14.08-2.69c5.01,0,9.7,0.9,14.09,2.69c4.38,1.79,8.22,4.27,11.48,7.45c3.27,3.17,5.85,6.95,7.74,11.34
		c1.89,4.39,2.84,9.22,2.84,14.46c0,5.2-0.95,10-2.84,14.42c-1.9,4.42-4.47,8.24-7.74,11.44c-3.26,3.2-7.1,5.7-11.48,7.5
		C755.47,331.06,750.77,331.95,745.77,331.95z M745.77,262.36c-4.6,0-8.94,0.84-12.98,2.55c-4.04,1.7-7.56,4.03-10.57,7.01
		c-3.01,2.98-5.39,6.52-7.16,10.63c-1.77,4.1-2.65,8.55-2.65,13.36c0,4.81,0.88,9.27,2.65,13.37c1.76,4.11,4.15,7.64,7.16,10.62
		c3.02,2.99,6.53,5.31,10.57,6.97c4.04,1.67,8.37,2.5,12.98,2.5c4.62,0,8.94-0.83,12.98-2.5c4.04-1.66,7.56-3.98,10.57-6.97
		c3.02-2.98,5.41-6.51,7.16-10.62c1.76-4.1,2.65-8.55,2.65-13.37c0-4.8-0.89-9.25-2.65-13.36c-1.76-4.1-4.15-7.64-7.16-10.63
		c-3.01-2.98-6.53-5.31-10.57-7.01S750.39,262.36,745.77,262.36z"/>
	<path class="st0" d="M465.5,335.75c-0.01-0.01-0.02-0.02-0.03-0.04l-13.27-14.56c-1.71-1.86-4.59-1.99-6.45-0.3
		c-1.87,1.7-2,4.59-0.3,6.45l10.28,11.28c-4.38,3.46-10,5.39-15.96,5.39c-13.3,0-24.11-9.63-24.11-21.48
		c0-8.01,4.95-15.3,12.93-19.03c2.28-1.07,3.26-3.79,2.2-6.07c-1.07-2.29-3.79-3.27-6.07-2.2c-11.22,5.25-18.19,15.72-18.19,27.31
		c0,16.88,14.91,30.62,33.25,30.62c8.26,0,16.07-2.79,22.12-7.76l6.05,6.64c0.9,0.99,2.14,1.49,3.38,1.49c1.1,0,2.2-0.39,3.07-1.19
		c1.87-1.7,2-4.59,0.3-6.45L465.5,335.75z"/>
	<path class="st0" d="M495.27,345.87c-0.18-0.2-6.54-7.26-14.98-16.66l10.17-10.15c0.94-0.95,1.37-2.21,1.3-3.45
		c-0.06-1.1-0.51-2.17-1.36-3.01c-1.8-1.77-4.69-1.74-6.45,0.05l-9.78,9.76c-15.51-17.26-34.29-38.19-36.7-41.02
		c-0.81-0.94-1.58-2-2.33-3.14c-1.42-2.79-2.11-5.76-2.11-9.07c0-10.61,8.01-19.24,17.84-19.24c5.17,0,10.08,2.42,13.47,6.62
		c1.58,1.96,4.46,2.28,6.43,0.69c1.96-1.58,2.27-4.46,0.68-6.42c-5.14-6.37-12.64-10.02-20.58-10.02
		c-14.87,0-26.97,12.73-26.97,28.38c0,4.73,1.05,9.19,3.12,13.22l0.33,0.6c1,1.55,2.07,3,3.18,4.3
		c4.24,4.99,55.78,62.24,57.97,64.67c0.9,1,2.14,1.51,3.4,1.51c1.09,0,2.18-0.38,3.06-1.17
		C496.81,350.63,496.96,347.74,495.27,345.87z"/>
	<path class="st0" d="M133.84,295.14l-23.55,34.42c-2.05,0.7-4.15,1.28-6.29,1.73c-2.15,0.45-4.31,0.67-6.49,0.67
		c-1.41,0-2.73-0.1-3.94-0.29c-4.61-0.45-8.94-1.66-12.98-3.65c-4.03-1.99-7.57-4.57-10.62-7.74c-3.04-3.17-5.43-6.84-7.16-11.01
		c-1.73-4.17-2.59-8.65-2.59-13.46c0-5,0.99-9.69,2.98-14.08c1.99-4.39,4.66-8.2,8.03-11.44c3.36-3.24,7.27-5.78,11.72-7.64
		c4.46-1.86,9.18-2.79,14.18-2.79c3.27,0,6.55,0.46,9.85,1.39c3.3,0.93,6.43,2.26,9.37,3.99c2.95,1.73,5.61,3.82,7.98,6.25
		c2.37,2.44,4.23,5.19,5.58,8.27c0.32,0.52,0.57,1.12,0.77,1.83h-2.11h-13.17c-2.05-3.14-4.75-5.56-8.08-7.26
		c-3.33-1.69-6.82-2.55-10.48-2.55c-3.33,0-6.46,0.64-9.37,1.92c-2.92,1.28-5.45,3.01-7.6,5.19c-2.15,2.18-3.83,4.75-5.04,7.69
		C73.6,289.53,73,292.67,73,296c0,1.6,0.19,3.19,0.57,4.75c0.39,1.57,0.87,3.09,1.45,4.57c1.98,4.68,4.96,8.28,8.94,10.81
		c3.97,2.54,8.49,3.8,13.55,3.8c0.83,0,1.61-0.03,2.35-0.1c0.74-0.06,1.49-0.16,2.26-0.29l8.65-12.31H89.04v-12.11h30H133.84z"/>
	<path class="st0" d="M175.18,331.95c-4.94,0-9.6-0.92-13.99-2.78c-4.39-1.86-8.24-4.41-11.54-7.64c-3.3-3.24-5.91-7.03-7.83-11.39
		c-1.92-4.36-2.88-9.03-2.88-14.03c0-5.06,0.94-9.79,2.83-14.18c1.89-4.39,4.49-8.21,7.79-11.49c3.3-3.26,7.14-5.84,11.53-7.74
		c4.39-1.89,9.09-2.83,14.09-2.83c5,0,9.7,0.94,14.12,2.83c4.42,1.89,8.27,4.47,11.54,7.74c3.27,3.27,5.87,7.1,7.79,11.49
		c1.92,4.39,2.88,9.12,2.88,14.18c0,5-0.95,9.67-2.88,14.03c-1.92,4.36-4.54,8.15-7.84,11.39c-3.3,3.23-7.15,5.78-11.53,7.64
		C184.87,331.03,180.18,331.95,175.18,331.95z M175.18,271.97c-3.27,0-6.33,0.64-9.18,1.92c-2.85,1.29-5.34,3.02-7.45,5.2
		c-2.12,2.18-3.77,4.73-4.95,7.64c-1.19,2.92-1.77,6.01-1.77,9.28c0,3.21,0.6,6.25,1.82,9.13c1.22,2.89,2.87,5.42,4.95,7.6
		c2.09,2.18,4.55,3.9,7.4,5.19c2.85,1.28,5.91,1.92,9.18,1.92c3.26,0,6.32-0.64,9.18-1.92c2.85-1.29,5.31-3.02,7.4-5.19
		c2.08-2.18,3.73-4.71,4.95-7.6c1.21-2.88,1.83-5.92,1.83-9.13c0-3.27-0.6-6.36-1.78-9.28c-1.19-2.91-2.82-5.46-4.9-7.64
		c-2.09-2.18-4.55-3.91-7.41-5.2C181.6,272.61,178.51,271.97,175.18,271.97z"/>
	<path class="st0" d="M261.11,331.95h-16.14l-26.05-37.68h6.73h8.65c1.73,0,3.38-0.22,4.95-0.68c1.57-0.45,2.93-1.12,4.09-2.02
		c1.15-0.9,2.06-2.03,2.73-3.41c0.67-1.38,1.01-3.03,1.01-4.95c0-1.86-0.35-3.47-1.05-4.81c-0.71-1.35-1.63-2.47-2.79-3.37
		c-1.16-0.89-2.5-1.57-4.03-2.02c-1.54-0.45-3.18-0.67-4.9-0.67h-8.65h-10v-12.5l0,0h18.84c3.21,0,6.28,0.3,9.23,0.91
		c2.94,0.61,5.7,1.91,8.27,3.9c2.7,2.24,4.78,4.87,6.25,7.89c1.48,3.01,2.21,6.21,2.21,9.61c0,3.08-0.61,6.19-1.82,9.33
		c-1.22,3.13-2.88,5.76-5,7.88c-1.86,1.8-3.72,3.09-5.58,3.89c-1.86,0.8-4.01,1.46-6.44,1.98L261.11,331.95z"/>
	<path class="st0" d="M306.25,280.86c-2.02-5.03-4.98-9.24-8.89-12.64c-1.99-1.73-4.16-3.14-6.54-4.23
		c-2.37-1.09-4.86-1.94-7.45-2.54c-2.59-0.61-5.22-1.03-7.88-1.26c-2.66-0.22-5.24-0.33-7.74-0.33h-3.07v12.4
		c2.11,0,4.23,0.03,6.34,0.1c2.12,0.06,4.16,0.29,6.15,0.67c1.99,0.39,3.92,1,5.77,1.83c1.86,0.83,3.62,1.98,5.29,3.46
		c2.5,2.24,4.42,4.95,5.77,8.12c1.35,3.17,2.02,6.4,2.02,9.66c0,3.97-0.93,7.78-2.79,11.43c-1.86,3.66-4.58,6.48-8.17,8.46
		c-2.89,1.67-5.72,2.68-8.51,3.03c-2.79,0.35-5.78,0.53-8.99,0.53h-2.88v12.4h3.37c1.92,0,3.94-0.06,6.05-0.19
		c2.12-0.13,4.2-0.37,6.25-0.72c2.05-0.36,4.07-0.83,6.06-1.44c1.98-0.61,3.84-1.4,5.57-2.36c2.76-1.47,5.21-3.35,7.35-5.62
		c2.15-2.27,3.96-4.79,5.43-7.55c1.47-2.76,2.59-5.67,3.36-8.75c0.77-3.08,1.16-6.15,1.16-9.23
		C309.28,290.98,308.27,285.89,306.25,280.86z"/>
	<path class="st0" d="M350.32,331.95c-4.93,0-9.59-0.92-13.99-2.78c-4.39-1.86-8.24-4.41-11.53-7.64c-3.3-3.24-5.92-7.03-7.83-11.39
		c-1.92-4.36-2.88-9.03-2.88-14.03c0-5.06,0.94-9.79,2.84-14.18c1.89-4.39,4.48-8.21,7.78-11.49c3.3-3.26,7.15-5.84,11.54-7.74
		c4.38-1.89,9.08-2.83,14.08-2.83c5,0,9.71,0.94,14.13,2.83c4.42,1.89,8.26,4.47,11.53,7.74c3.27,3.27,5.86,7.1,7.79,11.49
		c1.92,4.39,2.88,9.12,2.88,14.18c0,5-0.96,9.67-2.88,14.03c-1.92,4.36-4.53,8.15-7.83,11.39c-3.3,3.23-7.15,5.78-11.54,7.64
		C360.01,331.03,355.31,331.95,350.32,331.95z M350.32,271.97c-3.26,0-6.33,0.64-9.18,1.92c-2.85,1.29-5.33,3.02-7.45,5.2
		c-2.11,2.18-3.76,4.73-4.95,7.64c-1.19,2.92-1.78,6.01-1.78,9.28c0,3.21,0.61,6.25,1.83,9.13c1.21,2.89,2.87,5.42,4.94,7.6
		c2.09,2.18,4.55,3.9,7.41,5.19c2.85,1.28,5.91,1.92,9.18,1.92s6.33-0.64,9.18-1.92c2.85-1.29,5.31-3.02,7.4-5.19
		c2.08-2.18,3.73-4.71,4.95-7.6c1.21-2.88,1.82-5.92,1.82-9.13c0-3.27-0.59-6.36-1.78-9.28c-1.19-2.91-2.82-5.46-4.9-7.64
		c-2.09-2.18-4.55-3.91-7.4-5.2C356.74,272.61,353.65,271.97,350.32,271.97z"/>
	<path class="st0" d="M514.49,262.55v31.82h19.32v2.59h-19.32v32.39v2.5h-2.88v-72h39.51v2.69H514.49z"/>
	<path class="st0" d="M555.06,259.76h2.98v69.5h30.48v2.69h-33.46V259.76z"/>
	<polygon class="st0" points="598.8,259.86 592.94,259.86 592.94,331.95 595.81,331.95 595.81,262.45 597.06,262.45 646.38,331.95 
		649.94,331.95 	"/>
	<path class="st0" d="M691.27,262.26c-4.61,0-8.94,0.86-12.98,2.55c-4.04,1.69-7.56,4.05-10.57,7.06
		c-3.01,3.01-5.38,6.57-7.11,10.67c-1.73,4.1-2.59,8.55-2.59,13.36c0,4.81,0.86,9.27,2.59,13.37c1.73,4.11,4.11,7.64,7.11,10.62
		c3.02,2.99,6.54,5.32,10.57,7.02c4.03,1.7,8.36,2.54,12.98,2.54h14.52v2.5h-14.52c-5,0-9.69-0.89-14.08-2.69
		c-4.39-1.8-8.22-4.31-11.49-7.54c-3.27-3.23-5.85-7.05-7.74-11.44c-1.89-4.38-2.83-9.18-2.83-14.37c0-5.25,0.94-10.07,2.83-14.46
		c1.9-4.39,4.47-8.18,7.74-11.39c3.27-3.21,7.1-5.7,11.49-7.5c4.39-1.79,9.08-2.69,14.08-2.69h14.52v2.4H691.27z"/>
	<path class="st0" d="M745.77,331.95c-5,0-9.69-0.89-14.08-2.69c-4.39-1.8-8.21-4.3-11.48-7.5c-3.27-3.21-5.85-7.02-7.74-11.44
		c-1.89-4.42-2.83-9.22-2.83-14.42c0-5.25,0.94-10.07,2.83-14.46c1.9-4.39,4.47-8.17,7.74-11.34c3.27-3.17,7.09-5.65,11.48-7.45
		c4.39-1.79,9.08-2.69,14.08-2.69c5.01,0,9.7,0.9,14.09,2.69c4.38,1.79,8.22,4.27,11.48,7.45c3.27,3.17,5.85,6.95,7.74,11.34
		c1.89,4.39,2.84,9.22,2.84,14.46c0,5.2-0.95,10-2.84,14.42c-1.9,4.42-4.47,8.24-7.74,11.44c-3.26,3.2-7.1,5.7-11.48,7.5
		C755.47,331.06,750.77,331.95,745.77,331.95z M745.77,262.36c-4.6,0-8.94,0.84-12.98,2.55c-4.04,1.7-7.56,4.03-10.57,7.01
		c-3.01,2.98-5.39,6.52-7.16,10.63c-1.77,4.1-2.65,8.55-2.65,13.36c0,4.81,0.88,9.27,2.65,13.37c1.76,4.11,4.15,7.64,7.16,10.62
		c3.02,2.99,6.53,5.31,10.57,6.97c4.04,1.67,8.37,2.5,12.98,2.5c4.62,0,8.94-0.83,12.98-2.5c4.04-1.66,7.56-3.98,10.57-6.97
		c3.02-2.98,5.41-6.51,7.16-10.62c1.76-4.1,2.65-8.55,2.65-13.37c0-4.8-0.89-9.25-2.65-13.36c-1.76-4.1-4.15-7.64-7.16-10.63
		c-3.01-2.98-6.53-5.31-10.57-7.01S750.39,262.36,745.77,262.36z"/>
	<path class="st0" d="M465.5,335.75c-0.01-0.01-0.02-0.02-0.03-0.04l-13.27-14.56c-1.71-1.86-4.59-1.99-6.45-0.3
		c-1.87,1.7-2,4.59-0.3,6.45l10.28,11.28c-4.38,3.46-10,5.39-15.96,5.39c-13.3,0-24.11-9.63-24.11-21.48
		c0-8.01,4.95-15.3,12.93-19.03c2.28-1.07,3.26-3.79,2.2-6.07c-1.07-2.29-3.79-3.27-6.07-2.2c-11.22,5.25-18.19,15.72-18.19,27.31
		c0,16.88,14.91,30.62,33.25,30.62c8.26,0,16.07-2.79,22.12-7.76l6.05,6.64c0.9,0.99,2.14,1.49,3.38,1.49c1.1,0,2.2-0.39,3.07-1.19
		c1.87-1.7,2-4.59,0.3-6.45L465.5,335.75z"/>
	<path class="st0" d="M495.27,345.87c-0.18-0.2-6.54-7.26-14.98-16.66l10.17-10.15c0.94-0.95,1.37-2.21,1.3-3.45
		c-0.06-1.1-0.51-2.17-1.36-3.01c-1.8-1.77-4.69-1.74-6.45,0.05l-9.78,9.76c-15.51-17.26-34.29-38.19-36.7-41.02
		c-0.81-0.94-1.58-2-2.33-3.14c-1.42-2.79-2.11-5.76-2.11-9.07c0-10.61,8.01-19.24,17.84-19.24c5.17,0,10.08,2.42,13.47,6.62
		c1.58,1.96,4.46,2.28,6.43,0.69c1.96-1.58,2.27-4.46,0.68-6.42c-5.14-6.37-12.64-10.02-20.58-10.02
		c-14.87,0-26.97,12.73-26.97,28.38c0,4.73,1.05,9.19,3.12,13.22l0.33,0.6c1,1.55,2.07,3,3.18,4.3
		c4.24,4.99,55.78,62.24,57.97,64.67c0.9,1,2.14,1.51,3.4,1.51c1.09,0,2.18-0.38,3.06-1.17
		C496.81,350.63,496.96,347.74,495.27,345.87z"/>
</g>
</svg>
