<?xml version="1.0" encoding="utf-8"?>
<!-- Generator: Adobe Illustrator 25.0.0, SVG Export Plug-In . SVG Version: 6.00 Build 0)  -->
<svg version="1.1" id="Capa_1" xmlns="http://www.w3.org/2000/svg" xmlns:xlink="http://www.w3.org/1999/xlink" x="0px" y="0px"
	 viewBox="250 90 460 470" style="enable-background:new 0 0 841.89 595.28;" xml:space="preserve">
<style type="text/css">
	.st0{fill:#E0067A;}
</style>
<path class="st0" d="M508.85,455.15c-0.03-0.06-0.09-0.09-0.12-0.15l-54.3-59.6c-6.98-7.62-18.78-8.16-26.42-1.21
	c-7.64,6.95-8.18,18.78-1.23,26.4l42.08,46.19c-17.91,14.15-40.91,22.06-65.32,22.06c-54.42,0-98.69-39.43-98.69-87.92
	c0-32.78,20.28-62.63,52.92-77.9c9.34-4.37,13.36-15.5,8.98-24.86c-4.37-9.36-15.51-13.37-24.86-9
	c-45.91,21.49-74.43,64.32-74.43,111.76c0,69.1,61.04,125.32,136.07,125.32c33.79,0,65.77-11.41,90.54-31.78l24.77,27.18
	c3.68,4.06,8.75,6.11,13.84,6.11c4.49,0,9.02-1.62,12.58-4.87c7.64-6.96,8.18-18.78,1.23-26.42L508.85,455.15z"/>
<path class="st0" d="M630.69,496.54c-0.75-0.84-26.78-29.73-61.31-68.17l41.63-41.56c3.83-3.89,5.6-9.06,5.33-14.12
	c-0.24-4.49-2.1-8.9-5.57-12.31c-7.37-7.23-19.2-7.11-26.42,0.22l-40.01,39.92c-63.47-70.62-140.35-156.28-150.2-167.87
	c-3.3-3.86-6.47-8.18-9.56-12.85c-5.81-11.41-8.65-23.57-8.65-37.12c0-43.41,32.77-78.76,73.02-78.76
	c21.15,0,41.24,9.88,55.14,27.11c6.47,8.04,18.24,9.31,26.3,2.82c8.03-6.47,9.29-18.24,2.79-26.28
	c-21.03-26.07-51.73-41.02-84.22-41.02c-60.86,0-110.4,52.1-110.4,116.14c0,19.38,4.31,37.62,12.76,54.12l1.35,2.47
	c4.1,6.35,8.48,12.26,13,17.58c17.37,20.44,228.29,254.72,237.24,264.69c3.69,4.09,8.78,6.18,13.9,6.18c4.46,0,8.92-1.57,12.52-4.81
	C636.98,516.03,637.61,504.21,630.69,496.54z"/>
<path class="st0" d="M508.85,455.15c-0.03-0.06-0.09-0.09-0.12-0.15l-54.3-59.6c-6.98-7.62-18.78-8.16-26.42-1.21
	c-7.64,6.95-8.18,18.78-1.23,26.4l42.08,46.19c-17.91,14.15-40.91,22.06-65.32,22.06c-54.42,0-98.69-39.43-98.69-87.92
	c0-32.78,20.28-62.63,52.92-77.9c9.34-4.37,13.36-15.5,8.98-24.86c-4.37-9.36-15.51-13.37-24.86-9
	c-45.91,21.49-74.43,64.32-74.43,111.76c0,69.1,61.04,125.32,136.07,125.32c33.79,0,65.77-11.41,90.54-31.78l24.77,27.18
	c3.68,4.06,8.75,6.11,13.84,6.11c4.49,0,9.02-1.62,12.58-4.87c7.64-6.96,8.18-18.78,1.23-26.42L508.85,455.15z"/>
<path class="st0" d="M630.69,496.54c-0.75-0.84-26.78-29.73-61.31-68.17l41.63-41.56c3.83-3.89,5.6-9.06,5.33-14.12
	c-0.24-4.49-2.1-8.9-5.57-12.31c-7.37-7.23-19.2-7.11-26.42,0.22l-40.01,39.92c-63.47-70.62-140.35-156.28-150.2-167.87
	c-3.3-3.86-6.47-8.18-9.56-12.85c-5.81-11.41-8.65-23.57-8.65-37.12c0-43.41,32.77-78.76,73.02-78.76
	c21.15,0,41.24,9.88,55.14,27.11c6.47,8.04,18.24,9.31,26.3,2.82c8.03-6.47,9.29-18.24,2.79-26.28
	c-21.03-26.07-51.73-41.02-84.22-41.02c-60.86,0-110.4,52.1-110.4,116.14c0,19.38,4.31,37.62,12.76,54.12l1.35,2.47
	c4.1,6.35,8.48,12.26,13,17.58c17.37,20.44,228.29,254.72,237.24,264.69c3.69,4.09,8.78,6.18,13.9,6.18c4.46,0,8.92-1.57,12.52-4.81
	C636.98,516.03,637.61,504.21,630.69,496.54z"/>
</svg>
